<?xml version="1.0" standalone="no"?><!DOCTYPE svg PUBLIC "-//W3C//DTD SVG 1.1//EN" "http://www.w3.org/Graphics/SVG/1.1/DTD/svg11.dtd"><svg t="1591368840789" class="icon" viewBox="0 0 1024 1024" version="1.1" xmlns="http://www.w3.org/2000/svg" p-id="4517" xmlns:xlink="http://www.w3.org/1999/xlink" width="200" height="200"><defs><style type="text/css">@font-face { font-family: yourDictFontAwesome; src: url("chrome-extension://dmckmhkomggmpalekfadjibdcknieljf/lib/fontawesome-webfont.ttf") format("truetype"); font-weight: normal; font-style: normal; }
</style></defs><path d="M512 42.666667q95.658667 0 182.485333 37.162667t149.674667 100.010667 100.010667 149.674667 37.162667 182.485333-37.162667 182.485333-100.010667 149.674667-149.674667 100.010667-182.485333 37.162667-182.485333-37.162667-149.674667-100.010667-100.010667-149.674667-37.162667-182.485333 37.162667-182.485333 100.010667-149.674667 149.674667-100.010667 182.485333-37.162667zM751.658667 811.989333l-539.648-539.648q-40.021333 50.346667-61.994667 111.658667t-22.016 128q0 77.994667 30.506667 149.162667t81.834667 122.496 122.496 81.834667 149.162667 30.506667q66.986667 0 128.341333-21.845333t111.317333-62.165333zM512 128q-66.986667 0-128.341333 21.845333t-111.317333 62.165333l539.648 539.648q40.32-50.005333 62.165333-111.317333t21.845333-128.341333q0-77.994667-30.506667-149.162667t-81.834667-122.496-122.496-81.834667-149.162667-30.506667z" p-id="4518"></path></svg>