<?xml version="1.0" standalone="no"?><!DOCTYPE svg PUBLIC "-//W3C//DTD SVG 1.1//EN" "http://www.w3.org/Graphics/SVG/1.1/DTD/svg11.dtd"><svg t="1585536031420" class="icon" viewBox="0 0 1024 1024" version="1.1" xmlns="http://www.w3.org/2000/svg" p-id="8705" xmlns:xlink="http://www.w3.org/1999/xlink" width="200" height="200"><defs><style type="text/css"></style></defs><path d="M859.648 284.16H164.352c-62.464 0-113.152 50.688-113.152 113.152v428.544c0 62.464 50.688 113.152 113.152 113.152h695.296c62.464 0 113.152-50.688 113.152-113.152V397.312c0-62.464-50.688-113.152-113.152-113.152z m48.64 541.696c0 26.624-21.504 48.64-48.64 48.64H164.352c-26.624 0-48.64-22.016-48.64-48.64V397.312c0-26.624 22.016-48.64 48.64-48.64h695.296c26.624 0 48.64 22.016 48.64 48.64v428.544z m0 0" p-id="8706"></path><path d="M662.528 584.704c13.824 0 25.088-11.264 25.088-25.088s-11.264-25.6-25.088-25.6h-94.72l96.768-96.768c9.728-9.728 9.728-26.112 0-35.84-9.728-9.728-26.112-9.728-35.84 0l-115.2 115.2-115.2-115.2c-9.728-9.728-26.112-9.728-35.84 0-9.728 9.728-9.728 26.112 0 35.84l96.768 96.768h-97.792c-13.824 0-25.088 11.264-25.088 25.6 0 13.824 11.264 25.088 25.088 25.088H486.4v55.808H361.472c-13.824 0-25.088 11.264-25.088 25.6 0 13.824 11.264 25.088 25.088 25.088H486.4v119.296c0 13.824 11.264 25.088 25.088 25.088s25.088-11.264 25.088-25.088V691.2h124.928c13.824 0 25.088-11.264 25.088-25.088s-11.264-25.6-25.088-25.6H536.576v-55.808h125.952z m-495.104-340.48h689.152c17.92 0 32.256-14.336 32.256-32.256s-14.336-32.256-32.256-32.256H167.424c-17.92 0-32.256 14.336-32.256 32.256 0 17.408 14.336 32.256 32.256 32.256z m86.016-103.936h517.632c17.92 0 32.256-14.336 32.256-32.256s-14.336-32.256-32.256-32.256H253.44c-17.92 0-32.256 14.336-32.256 32.256s14.336 32.256 32.256 32.256z m0 0" p-id="8707"></path></svg>