<?xml version="1.0" standalone="no"?><!DOCTYPE svg PUBLIC "-//W3C//DTD SVG 1.1//EN" "http://www.w3.org/Graphics/SVG/1.1/DTD/svg11.dtd"><svg t="1589104187597" class="icon" viewBox="0 0 1024 1024" version="1.1" xmlns="http://www.w3.org/2000/svg" p-id="2200" xmlns:xlink="http://www.w3.org/1999/xlink" width="200" height="200"><defs><style type="text/css">@font-face { font-family: yourDictFontAwesome; src: url("chrome-extension://dmckmhkomggmpalekfadjibdcknieljf/lib/fontawesome-webfont.ttf") format("truetype"); font-weight: normal; font-style: normal; }
</style></defs><path d="M767.2 201.2h-72.6v-36.3c0-20.1-16.3-36.3-36.3-36.3S622 144.9 622 164.9v36.3H404v-36.3c0-20.1-16.3-36.3-36.3-36.3-20.1 0-36.3 16.3-36.3 36.3v36.3h-72.6c-60.2 0-108.9 48.8-108.9 108.9v508.4c0 60.2 48.8 108.9 108.9 108.9h508.4c60.2 0 108.9-48.8 108.9-108.9V310.2c0.1-60.2-48.7-109-108.9-109z m36.3 617.4c0 20.1-16.3 36.3-36.3 36.3H258.8c-20.1 0-36.3-16.3-36.3-36.3V455.5h581.1v363.1z m0-435.8h-581v-72.6c0-20.1 16.3-36.3 36.3-36.3h72.6v36.3c0 20.1 16.3 36.3 36.3 36.3 20.1 0 36.3-16.3 36.3-36.3v-36.3h217.9v36.3c0 20.1 16.3 36.3 36.3 36.3s36.3-16.3 36.3-36.3v-36.3h72.6c20.1 0 36.3 16.3 36.3 36.3v72.6z" p-id="2201"></path><path d="M649.3 588.3c13.2-15.1 11.6-38.1-3.5-51.2-15.1-13.2-38.1-11.6-51.2 3.5L463.5 690.8 431.4 654c-13.2-15.1-36.1-16.7-51.2-3.5-15.1 13.2-16.7 36.1-3.5 51.2l59.4 68.1c6.9 7.9 16.9 12.4 27.4 12.4s20.5-4.5 27.4-12.4l158.4-181.5z" p-id="2202"></path></svg>