<?xml version="1.0" standalone="no"?><!DOCTYPE svg PUBLIC "-//W3C//DTD SVG 1.1//EN" "http://www.w3.org/Graphics/SVG/1.1/DTD/svg11.dtd"><svg t="1584670062811" class="icon" viewBox="0 0 1085 1024" version="1.1" xmlns="http://www.w3.org/2000/svg" p-id="3082" xmlns:xlink="http://www.w3.org/1999/xlink" width="211.9140625" height="200"><defs><style type="text/css"></style></defs><path d="M943.157895 938.666667H206.596491c-4.940351 0-8.982456 4.042105-8.982456 8.982456v67.368421c0 4.940351 4.042105 8.982456 8.982456 8.982456h736.561404c4.940351 0 8.982456-4.042105 8.982456-8.982456v-67.368421c0-4.940351-4.042105-8.982456-8.982456-8.982456z m0-812.912281H206.596491c-4.940351 0-8.982456 4.042105-8.982456 8.982456v67.368421c0 4.940351 4.042105 8.982456 8.982456 8.982456h736.561404c4.940351 0 8.982456-4.042105 8.982456-8.982456v-67.368421c0-4.940351-4.042105-8.982456-8.982456-8.982456zM685.810526 424.421053c6.736842 0 10.554386-7.859649 6.4-13.136842L579.031579 268.014035a8.016842 8.016842 0 0 0-12.687719 0L453.164912 411.284211a8.117895 8.117895 0 0 0 6.4 13.136842H534.45614v300.91228h-70.51228c-6.736842 0-10.554386 7.859649-6.4 13.136842l113.178947 143.157895c3.25614 4.154386 9.54386 4.154386 12.687719 0l113.178948-143.157895c4.154386-5.277193 0.449123-13.136842-6.4-13.136842H615.298246V424.421053h70.51228z" p-id="3083"></path></svg>