<?xml version="1.0" standalone="no"?><!DOCTYPE svg PUBLIC "-//W3C//DTD SVG 1.1//EN" "http://www.w3.org/Graphics/SVG/1.1/DTD/svg11.dtd"><svg t="1587110294488" class="icon" viewBox="0 0 1024 1024" version="1.1" xmlns="http://www.w3.org/2000/svg" p-id="7372" xmlns:xlink="http://www.w3.org/1999/xlink" width="200" height="200"><defs><style type="text/css"></style></defs><path d="M85.333333 128a42.666667 42.666667 0 0 1 42.666667-42.666667h298.666667a42.666667 42.666667 0 0 1 42.666666 42.666667v768a42.666667 42.666667 0 0 1-42.666666 42.666667H128a42.666667 42.666667 0 0 1-42.666667-42.666667V128z m469.333334 0a42.666667 42.666667 0 0 1 42.666666-42.666667h298.666667a42.666667 42.666667 0 0 1 42.666667 42.666667v170.666667a42.666667 42.666667 0 0 1-42.666667 42.666666h-298.666667a42.666667 42.666667 0 0 1-42.666666-42.666666V128z m42.666666 298.666667a42.666667 42.666667 0 0 0-42.666666 42.666666v426.666667a42.666667 42.666667 0 0 0 42.666666 42.666667h298.666667a42.666667 42.666667 0 0 0 42.666667-42.666667V469.333333a42.666667 42.666667 0 0 0-42.666667-42.666666h-298.666667z" p-id="7373"></path></svg>