<?xml version="1.0" standalone="no"?><!DOCTYPE svg PUBLIC "-//W3C//DTD SVG 1.1//EN" "http://www.w3.org/Graphics/SVG/1.1/DTD/svg11.dtd"><svg t="1584515730760" class="icon" viewBox="0 0 1024 1024" version="1.1" xmlns="http://www.w3.org/2000/svg" p-id="36347" xmlns:xlink="http://www.w3.org/1999/xlink" width="200" height="200"><defs><style type="text/css"></style></defs><path d="M480 654.4h65.6c7.2-0.8 12.8-7.2 12.8-14.4V394.4c-0.8-7.2-7.2-12.8-14.4-12.8h-65.6c-7.2 0.8-12.8 7.2-12.8 14.4v245.6c0.8 7.2 7.2 12.8 14.4 12.8zM703.2 654.4h65.6c7.2-0.8 12.8-7.2 12.8-14.4V264.8c-0.8-7.2-7.2-12.8-14.4-12.8h-65.6c-7.2 0.8-12.8 7.2-12.8 14.4V641.6c0.8 7.2 7.2 12.8 14.4 12.8zM256.8 654.4h65.6c7.2-0.8 12.8-7.2 12.8-14.4V523.2c-0.8-7.2-7.2-12.8-14.4-12.8h-65.6c-7.2 0.8-12.8 7.2-12.8 14.4v116.8c0.8 7.2 6.4 12.8 14.4 12.8z" p-id="36348"></path><path d="M964 131.2c-0.8-16.8-15.2-30.4-32-30.4H89.6c-16.8 0.8-30.4 15.2-30.4 32v646.4c0.8 16.8 15.2 30.4 32 30.4h383.2v41.6H300.8c-8 0.8-14.4 8-14.4 16v50.4c0.8 4 4 6.4 8 6.4h437.6c4-0.8 6.4-4 6.4-8v-50.4c-0.8-8-8-14.4-16-14.4H548v-41.6H933.6c16.8-0.8 30.4-15.2 30.4-32V131.2z m-72.8 605.6H132.8V173.6h758.4v563.2z" p-id="36349"></path></svg>