<?xml version="1.0" standalone="no"?><!DOCTYPE svg PUBLIC "-//W3C//DTD SVG 1.1//EN" "http://www.w3.org/Graphics/SVG/1.1/DTD/svg11.dtd"><svg t="1585620328467" class="icon" viewBox="0 0 1024 1024" version="1.1" xmlns="http://www.w3.org/2000/svg" p-id="4552" xmlns:xlink="http://www.w3.org/1999/xlink" width="200" height="200"><defs><style type="text/css"></style></defs><path d="M25.003 231.225c15.441-15.437 36.771-24.983 60.331-24.984s44.889 9.548 60.331 24.986l366.336 366.336 366.336-366.336c15.33-14.821 36.239-23.954 59.282-23.954 47.129 0 85.334 38.205 85.333 85.333 0 23.043-9.133 43.952-23.977 59.306l-426.644 426.643c-15.441 15.437-36.771 24.983-60.331 24.984-23.559 0-44.889-9.548-60.331-24.986l-426.666-426.666c-15.437-15.441-24.983-36.771-24.984-60.331s9.548-44.889 24.986-60.331z" p-id="4553"></path></svg>