<?xml version="1.0" standalone="no"?><!DOCTYPE svg PUBLIC "-//W3C//DTD SVG 1.1//EN" "http://www.w3.org/Graphics/SVG/1.1/DTD/svg11.dtd"><svg t="1585539494921" class="icon" viewBox="0 0 1024 1024" version="1.1" xmlns="http://www.w3.org/2000/svg" p-id="51715" xmlns:xlink="http://www.w3.org/1999/xlink" width="200" height="200"><defs><style type="text/css"></style></defs><path d="M0.99 192.49a372.55 192.49 0 1 0 745.1 0 372.55 192.49 0 1 0-745.1 0Z" p-id="51716"></path><path d="M341.85 601.41c15.15-49.1 40.87-93.6 74.49-130.85-14.05 0.83-28.32 1.26-42.79 1.26-161.5 0-298.98-53.1-350.66-127.34C8.73 364.83 0.99 386.76 0.99 409.62c0 100.8 149.94 183.48 340.86 191.79zM340.65 818.51c-11.25-34.37-17.37-71.05-17.37-109.13 0-7.42 0.26-14.78 0.72-22.09-139.62-9.59-254.81-59.12-301.11-125.65C8.73 581.99 0.99 603.92 0.99 626.78c0 100.57 149.32 183.12 339.66 191.73zM382.51 893.66c-2.98 0.04-5.96 0.06-8.96 0.06-161.5 0-298.98-53.1-350.66-127.34C8.73 786.73 0.99 808.66 0.99 831.52c0 106.3 166.8 192.48 372.55 192.48 47.83 0 93.54-4.66 135.56-13.15-51.32-27.92-94.88-68.37-126.59-117.19zM704.66 385.78c-175.82 0-318.34 142.53-318.34 318.35 0 175.82 142.53 318.35 318.34 318.35 175.82 0 318.35-142.53 318.35-318.35 0-175.82-142.53-318.35-318.35-318.35z m110.53 380.36c6.67 0.51 11.94 3.08 15.79 7.7 3.85 4.62 6.03 10.14 6.55 16.56-0.51 6.67-2.7 12.26-6.55 16.75-3.85 4.49-9.11 6.99-15.79 7.51l-73.94-0.39v40.82c-1.03 21.82-12.97 32.74-35.81 32.74-11.3 0-20.09-2.7-26.38-8.09-6.29-5.39-9.69-13.61-10.21-24.65v-40.05h-74.32c-6.93-0.51-12.26-3.4-15.98-8.67a37.626 37.626 0 0 1-6.74-17.52c0.77-6.42 3.02-11.68 6.74-15.79 3.72-4.11 9.05-6.42 15.98-6.93h74.32v-24.26l-74.32-0.39c-6.93-0.52-12.26-2.95-15.98-7.32-3.72-4.36-5.97-9.89-6.74-16.56 0.77-6.42 3.02-11.68 6.74-15.79 3.72-4.11 9.05-6.42 15.98-6.93h55.45L598.38 604c-2.57-3.08-5.01-6.99-7.32-11.75-2.31-4.75-3.34-9.95-3.08-15.59 1.28-7.19 3.85-13.03 7.7-17.52 3.85-4.5 11.04-7.38 21.56-8.67 6.16 0.52 11.68 2.63 16.56 6.35 4.88 3.72 8.86 7.77 11.94 12.13l58.54 107.06 64.31-107.83c3.08-4.36 7.06-8.21 11.94-11.55 4.88-3.33 10.4-5.39 16.56-6.16 3.85 0.26 7.38 0.77 10.59 1.54s6.03 2.05 8.47 3.85c2.44 1.8 4.49 4.36 6.16 7.7s2.89 7.7 3.66 13.09c0 7.45-2.57 14.5-7.7 21.18l-59.69 97.04h56.61c6.67 0.52 11.94 2.82 15.79 6.93 3.85 4.11 6.03 9.37 6.55 15.79-0.51 6.67-2.76 12.33-6.74 16.95-3.98 4.62-9.31 7.19-15.98 7.7l-73.55 0.39v23.49h73.93z" p-id="51717"></path></svg>