<?xml version="1.0" standalone="no"?><!DOCTYPE svg PUBLIC "-//W3C//DTD SVG 1.1//EN" "http://www.w3.org/Graphics/SVG/1.1/DTD/svg11.dtd"><svg t="1584587925174" class="icon" viewBox="0 0 1024 1024" version="1.1" xmlns="http://www.w3.org/2000/svg" p-id="5926" xmlns:xlink="http://www.w3.org/1999/xlink" width="200" height="200"><defs><style type="text/css"></style></defs><path d="M511.968 0C229.248 0 0 229.248 0 511.968S229.248 1024 511.968 1024 1024 794.72 1024 511.968 794.72 0 511.968 0z m106.592 793.504c-26.368 10.4-47.328 18.304-63.072 23.744-15.68 5.472-33.952 8.192-54.688 8.192-31.904 0-56.736-7.808-74.432-23.36s-26.496-35.296-26.496-59.264c0-9.312 0.64-18.848 1.952-28.576 1.344-9.696 3.456-20.64 6.368-32.896l32.992-116.512c2.912-11.168 5.408-21.792 7.424-31.68 1.984-9.984 2.944-19.104 2.944-27.424 0-14.816-3.072-25.216-9.184-31.072-6.208-5.856-17.856-8.704-35.232-8.704-8.48 0-17.248 1.248-26.208 3.904-8.896 2.72-16.608 5.216-22.944 7.616l8.704-35.904a824.512 824.512 0 0 1 61.984-22.592 182.848 182.848 0 0 1 55.904-9.44c31.68 0 56.128 7.712 73.344 22.976 17.12 15.296 25.76 35.2 25.76 59.648 0 5.056-0.608 14.016-1.792 26.752-1.184 12.8-3.392 24.448-6.592 35.168l-32.8 116.16c-2.688 9.312-5.056 19.968-7.232 31.904a170.016 170.016 0 0 0-3.168 27.136c0 15.424 3.424 25.952 10.368 31.552 6.848 5.6 18.848 8.416 35.84 8.416 8.032 0 16.992-1.44 27.136-4.192 10.048-2.784 17.344-5.248 21.92-7.36l-8.8 35.84z m-5.792-471.488a78.336 78.336 0 0 1-55.264 21.312 79.136 79.136 0 0 1-55.488-21.312c-15.328-14.208-23.104-31.52-23.104-51.712 0-20.16 7.808-37.504 23.104-51.84a78.496 78.496 0 0 1 55.488-21.536c21.536 0 40 7.136 55.264 21.536 15.296 14.336 22.976 31.68 22.976 51.84 0 20.256-7.68 37.504-22.976 51.712z" p-id="5927"></path></svg>