<?xml version="1.0" standalone="no"?><!DOCTYPE svg PUBLIC "-//W3C//DTD SVG 1.1//EN" "http://www.w3.org/Graphics/SVG/1.1/DTD/svg11.dtd"><svg t="1588259549600" class="icon" viewBox="0 0 1024 1024" version="1.1" xmlns="http://www.w3.org/2000/svg" p-id="4228" xmlns:xlink="http://www.w3.org/1999/xlink" width="200" height="200"><defs><style type="text/css">@font-face { font-family: yourDictFontAwesome; src: url("chrome-extension://dmckmhkomggmpalekfadjibdcknieljf/lib/fontawesome-webfont.ttf") format("truetype"); font-weight: normal; font-style: normal; }
</style></defs><path d="M604.628 62.365H408.11c-24.105 0-43.376 21.45-43.376 47.958 0 26.566 19.304 48.079 43.376 48.079h197.736c22.89 0 42.19-21.512 42.19-48.08 0.004-26.512-19.271-47.957-43.408-47.957z m213.387 32.007h-97.863c0.996 5.252 1.569 10.57 1.569 15.95 0.03 40.36-29.25 80.09-64.083 80.09H356.993c-36.66 0-65.98-39.73-65.98-80.09 0.035-5.38 0.61-10.698 1.604-15.95h-99.045c-79.611 0-99.175 45.134-99.175 110.247v644.97c0 69.946 28.008 109.094 105.188 109.094h612.409c77.182 0 114.698-30.695 114.698-109.058V204.62c0.005-65.108-35.12-110.241-108.678-110.241v-0.007h0.001zM717.47 731.181H291.91c-15.686 0-31.343-19.241-31.343-34.952 0-15.657 13.25-29.071 28.938-29.071h424.348c15.68 0 28.932 12.191 30.125 29.07 0 15.717-10.826 34.953-26.508 34.953z m1.733-170.777h-425.57c-15.686 0-25.676-16.864-25.676-32.587 0-15.716 13.261-31.433 28.944-31.433h424.347c15.686 0 28.937 14.563 30.121 31.433 0 15.718-16.514 32.587-32.166 32.587z m0-175.39h-425.57c-15.686 0-25.676-16.874-25.676-32.59 0-15.717 13.261-31.433 28.944-31.433h424.347c15.686 0 28.937 14.567 30.121 31.433 0 15.716-16.514 32.59-32.166 32.59z m0 0" p-id="4229"></path></svg>