<?xml version="1.0" standalone="no"?><!DOCTYPE svg PUBLIC "-//W3C//DTD SVG 1.1//EN" "http://www.w3.org/Graphics/SVG/1.1/DTD/svg11.dtd"><svg t="1584515830007" class="icon" viewBox="0 0 1024 1024" version="1.1" xmlns="http://www.w3.org/2000/svg" p-id="39583" xmlns:xlink="http://www.w3.org/1999/xlink" width="200" height="200"><defs><style type="text/css"></style></defs><path d="M757.532444 614.001778a191.203556 191.203556 0 0 0-161.393777 88.632889l-205.368889-117.418667a188.302222 188.302222 0 0 0 21.504-86.300444c0-19.342222-3.640889-37.546667-9.045334-55.182223l213.617778-122.083555a190.691556 190.691556 0 0 0 140.629334 62.179555c105.813333 0 191.715556-85.902222 191.715555-191.715555s-85.902222-191.715556-191.715555-191.715556a191.715556 191.715556 0 0 0-191.715556 191.715556c0 19.342222 3.640889 37.546667 8.931556 55.125333L361.073778 369.208889A190.577778 190.577778 0 0 0 220.558222 307.2a191.715556 191.715556 0 1 0-0.113778 383.431111c43.804444 0 83.569778-15.189333 115.825778-39.765333l-0.739555 1.308444 232.277333 132.778667c-0.910222 6.826667-2.104889 13.596444-2.104889 20.878222a191.715556 191.715556 0 1 0 191.829333-191.772444z m0-537.031111a115.143111 115.143111 0 1 1-115.086222 115.029333c0-63.431111 51.427556-114.972444 115.086222-114.972444z m-537.031111 537.031111a114.972444 114.972444 0 0 1-114.915555-115.086222 115.029333 115.029333 0 1 1 114.915555 115.086222z m537.031111 306.858666a115.086222 115.086222 0 1 1 0-230.229333 115.086222 115.086222 0 0 1 0 230.229333z" p-id="39584"></path></svg>