<?xml version="1.0" standalone="no"?><!DOCTYPE svg PUBLIC "-//W3C//DTD SVG 1.1//EN" "http://www.w3.org/Graphics/SVG/1.1/DTD/svg11.dtd"><svg t="1584585783578" class="icon" viewBox="0 0 1024 1024" version="1.1" xmlns="http://www.w3.org/2000/svg" p-id="3294" xmlns:xlink="http://www.w3.org/1999/xlink" width="200" height="200"><defs><style type="text/css"></style></defs><path d="M958.903954 134.070857l-64.365714 50.395429A478.866286 478.866286 0 0 0 516.389669 0 479.670857 479.670857 0 0 0 36.572526 479.451429 479.890286 479.890286 0 0 0 967.461669 644.388571a9.142857 9.142857 0 0 0-5.632-11.776l-64.804572-22.308571a9.142857 9.142857 0 0 0-11.556571 5.485714 391.021714 391.021714 0 0 1-90.989715 142.043429 390.582857 390.582857 0 0 1-277.796571 115.2 390.144 390.144 0 0 1-277.796571-115.126857A391.021714 391.021714 0 0 1 123.758811 479.817143a391.094857 391.094857 0 0 1 115.126858-278.089143 390.582857 390.582857 0 0 1 277.796571-115.2 390.144 390.144 0 0 1 277.869714 115.2c11.264 11.337143 21.942857 23.405714 31.744 35.913143l-68.754285 53.686857a9.142857 9.142857 0 0 0 3.364571 16.091429l200.704 49.225142a9.142857 9.142857 0 0 0 11.337143-8.777142l0.877714-206.774858a9.216 9.216 0 0 0-14.848-7.094857z" p-id="3295"></path></svg>