<?xml version="1.0" standalone="no"?><!DOCTYPE svg PUBLIC "-//W3C//DTD SVG 1.1//EN" "http://www.w3.org/Graphics/SVG/1.1/DTD/svg11.dtd"><svg t="1584585815474" class="icon" viewBox="0 0 1080 1024" version="1.1" xmlns="http://www.w3.org/2000/svg" p-id="3769" xmlns:xlink="http://www.w3.org/1999/xlink" width="210.9375" height="200"><defs><style type="text/css"></style></defs><path d="M540.225953 291.608283A220.469055 220.469055 0 0 0 319.984362 511.793008 220.469055 220.469055 0 0 0 540.225953 731.977733c11.828105 0 24.338601-1.25105 39.408062-3.86688a41.5121 41.5121 0 0 0-14.785132-81.545686c-9.780933 1.762843-17.628426 2.615831-24.509198 2.615831A137.615453 137.615453 0 0 1 402.894829 511.793008a137.444856 137.444856 0 0 1 137.217392-137.38799A137.501722 137.501722 0 0 1 677.443345 511.793008c0 7.392566-0.796122 15.126327-2.558965 24.452333a41.5121 41.5121 0 0 0 81.602552 14.898863c2.672697-14.330204 3.866881-26.8407 3.86688-39.351196a218.365017 218.365017 0 0 0-64.429053-155.64194A218.763078 218.763078 0 0 0 540.225953 291.608283zM1070.784705 410.571724a36.792231 36.792231 0 0 0-27.978018-29.001603 187.429973 187.429973 0 0 1-121.693004-89.620643 187.657436 187.657436 0 0 1-16.946035-149.955351 36.507901 36.507901 0 0 0-11.088849-38.668805A538.519976 538.519976 0 0 0 717.420066 2.104038a36.621633 36.621633 0 0 0-39.010001 9.667201 187.088777 187.088777 0 0 1-138.184112 60.277843c-52.885278 0-101.96054-21.43844-138.297844-60.391575a37.474621 37.474621 0 0 0-39.123732-9.667201c-65.054578 22.746356-124.081372 56.86589-175.545002 101.448748a36.849097 36.849097 0 0 0-11.031983 38.441341c15.581254 50.894971 9.610335 104.17831-16.832303 150.012217A187.088777 187.088777 0 0 1 37.702085 381.570121a37.07656 37.07656 0 0 0-27.921152 29.001603A542.841784 542.841784 0 0 0 0 511.793008c0 33.095948 3.298222 67.10175 9.780933 101.164418 2.672697 14.273338 13.647814 25.646516 27.921152 29.001604 51.918557 11.884971 95.136634 43.729869 121.693004 89.563776 26.442639 45.833907 32.413557 99.174112 16.832303 150.125949a37.190292 37.190292 0 0 0 11.088849 38.498208 539.316099 539.316099 0 0 0 175.545002 101.335015c14.216472 4.890467 29.399665 0.682391 39.01-9.610335a187.259375 187.259375 0 0 1 138.240978-60.391575c52.885278 0 102.017406 21.43844 138.240978 60.334709a36.792231 36.792231 0 0 0 39.180598 9.780933 539.372965 539.372965 0 0 0 175.545002-101.391881 37.07656 37.07656 0 0 0 11.088849-38.498208 186.975046 186.975046 0 0 1 16.889169-150.069083 186.91818 186.91818 0 0 1 121.693004-89.620642 37.07656 37.07656 0 0 0 27.978018-29.001604A543.524175 543.524175 0 0 0 1080.451906 511.963606c0-33.20968-3.298222-67.272348-9.724067-101.27815z m-260.10458 447.307089a436.275107 436.275107 0 0 1-105.941153 61.130832 248.390207 248.390207 0 0 0-329.082904 0 436.445704 436.445704 0 0 1-105.941153-61.130832 246.343035 246.343035 0 0 0-28.205481-173.668427 247.707816 247.707816 0 0 0-136.478136-111.286546 430.361054 430.361054 0 0 1 0-122.432261 247.764682 247.764682 0 0 0 164.683617-284.898108 436.616302 436.616302 0 0 1 105.941153-61.187697 247.707816 247.707816 0 0 0 164.513019 62.438747 247.309755 247.309755 0 0 0 164.569885-62.325016c38.100146 15.35379 73.641327 35.882376 105.941153 61.130832a247.707816 247.707816 0 0 0 164.626751 284.954974 431.782701 431.782701 0 0 1 0.056866 122.318529 247.707816 247.707816 0 0 0-164.683617 284.954973z" p-id="3770"></path></svg>