<?xml version="1.0" standalone="no"?><!DOCTYPE svg PUBLIC "-//W3C//DTD SVG 1.1//EN" "http://www.w3.org/Graphics/SVG/1.1/DTD/svg11.dtd"><svg t="1585535748319" class="icon" viewBox="0 0 1025 1024" version="1.1" xmlns="http://www.w3.org/2000/svg" p-id="6451" xmlns:xlink="http://www.w3.org/1999/xlink" width="200.1953125" height="200"><defs><style type="text/css"></style></defs><path d="M864.711 558.08c25.6-51.2 40.391-109.227 40.391-170.667C905.102 173.511 728.747 0 512 0 294.684 0 118.898 173.511 118.898 387.413c0 61.44 14.79 118.898 40.39 170.667L0 830.009s101.262 20.48 203.662 41.529L340.196 1024l146.773-250.311c8.533 0 16.498 1.138 25.031 1.138 8.533 0 16.498-0.57 25.031-1.138L683.804 1024l136.534-152.462c102.4-21.05 203.662-41.53 203.662-41.53L864.711 558.08zM512 704.284c-176.356 0-319.716-143.36-319.716-320.284 0-176.924 143.36-320.284 319.716-320.284S831.716 207.076 831.716 384c0 176.924-143.36 320.284-319.716 320.284zM256.569 384a4.49 4.5 0 1 0 510.862 0 4.49 4.5 0 1 0-510.862 0z" p-id="6452"></path></svg>