<?xml version="1.0" standalone="no"?><!DOCTYPE svg PUBLIC "-//W3C//DTD SVG 1.1//EN" "http://www.w3.org/Graphics/SVG/1.1/DTD/svg11.dtd"><svg t="1587004705915" class="icon" viewBox="0 0 1024 1024" version="1.1" xmlns="http://www.w3.org/2000/svg" p-id="8687" xmlns:xlink="http://www.w3.org/1999/xlink" width="200" height="200"><defs><style type="text/css"></style></defs><path d="M956.462 160.869c-2.503-0.246-252.411-25.697-426.47-151.224-11.27-8.13-26.531-8.13-37.819 0C318.083 135.172 68.206 160.64 65.72 160.869c-16.489 1.587-29.084 15.343-29.084 31.8 0 6.853 0.638 170.214 56.663 353.597 33.205 108.728 79.137 201.752 136.503 276.49 72.856 94.938 164.195 160.368 271.468 194.49a32.437 32.437 0 0 0 9.814 1.52c3.32 0 6.625-0.506 9.798-1.52C628.154 983.14 719.494 917.71 792.35 822.771c57.364-74.755 103.28-167.763 136.5-276.49 56.025-183.383 56.679-346.744 56.679-353.615 0-16.438-12.579-30.196-29.067-31.798zM719.46 393.716L519.49 654.11c-5.365 6.985-13.38 11.466-22.18 12.399a34.158 34.158 0 0 1-3.418 0.18c-7.623 0-15.066-2.7-20.906-7.672l-116.35-98.782c-13.51-11.467-15.081-31.62-3.55-45.032 11.549-13.414 31.849-14.983 45.36-3.517l90.489 76.814 179.342-233.535c10.763-14.034 30.964-16.734 45.097-6.035 14.133 10.698 16.85 30.751 6.086 44.786z" fill="" p-id="8688"></path></svg>